<?xml version="1.0" standalone="no"?>
<!DOCTYPE svg PUBLIC "-//W3C//DTD SVG 20010904//EN"
 "http://www.w3.org/TR/2001/REC-SVG-20010904/DTD/svg10.dtd">
<svg version="1.0" xmlns="http://www.w3.org/2000/svg"
 width="200.000000pt" height="200.000000pt" viewBox="0 0 200.000000 200.000000"
 preserveAspectRatio="xMidYMid meet">

<g transform="translate(0.000000,200.000000) scale(0.100000,-0.100000)"
fill="#000000" stroke="none">
<path d="M0 1000 l0 -1000 1000 0 1000 0 0 1000 0 1000 -1000 0 -1000 0 0
-1000z m953 713 c-7 -2 -21 -2 -30 0 -10 3 -4 5 12 5 17 0 24 -2 18 -5z m130
0 c-7 -2 -21 -2 -30 0 -10 3 -4 5 12 5 17 0 24 -2 18 -5z m-254 -27 c-10 -9
-69 -36 -69 -32 0 7 52 35 64 36 5 0 7 -2 5 -4z m381 -11 c17 -9 30 -18 30
-21 0 -4 -59 23 -69 32 -10 9 13 3 39 -11z m-536 -97 c-27 -29 -57 -64 -67
-78 l-18 -25 12 25 c12 24 107 130 117 130 3 0 -17 -24 -44 -52z m719 -71 c17
-31 17 -31 0 -7 -10 14 -40 50 -68 80 l-49 55 50 -48 c27 -26 58 -62 67 -80z
m-417 -20 c-25 -18 -18 -61 12 -65 14 -2 22 -10 22 -23 0 -10 -4 -19 -10 -19
-5 0 -7 6 -5 13 3 6 -5 17 -17 22 -37 16 -33 85 5 85 6 0 3 -6 -7 -13z m54 -2
c19 -22 8 -25 -12 -3 -10 10 -14 18 -9 18 5 0 14 -7 21 -15z m-65 -121 c-26
-20 -55 -36 -55 -30 0 5 63 46 70 46 3 -1 -4 -8 -15 -16z m-418 -26 c-3 -7 -5
-2 -5 12 0 14 2 19 5 13 2 -7 2 -19 0 -25z m543 -5 c0 -7 -39 17 -46 28 -3 6
5 3 20 -6 14 -10 26 -19 26 -22z m367 5 c-3 -7 -5 -2 -5 12 0 14 2 19 5 13 2
-7 2 -19 0 -25z m-576 -27 c-31 -23 -90 -57 -76 -44 13 14 88 63 95 63 3 0 -6
-9 -19 -19z m274 -16 l20 -16 -20 10 c-11 5 -29 17 -40 26 l-20 16 20 -10 c11
-5 29 -17 40 -26z m-618 -67 c-2 -18 -4 -6 -4 27 0 33 2 48 4 33 2 -15 2 -42
0 -60z m930 0 c-2 -18 -4 -6 -4 27 0 33 2 48 4 33 2 -15 2 -42 0 -60z m-677
28 c0 -2 -18 -15 -41 -30 -22 -15 -39 -33 -36 -39 3 -9 82 -13 293 -17 l289
-5 -292 -3 c-161 -1 -293 0 -293 2 0 2 -3 11 -6 20 -4 10 9 25 37 45 41 30 49
35 49 27z m478 -33 c17 -13 32 -28 32 -33 0 -5 -10 1 -22 13 -13 12 -34 30
-48 40 -14 10 -18 15 -10 11 8 -4 30 -18 48 -31z m-721 -75 c-3 -7 -5 -2 -5
12 0 14 2 19 5 13 2 -7 2 -19 0 -25z m910 0 c-3 -7 -5 -2 -5 12 0 14 2 19 5
13 2 -7 2 -19 0 -25z m-782 -218 l49 -55 -50 48 c-27 26 -58 62 -67 80 -17 31
-17 31 0 7 10 -14 40 -50 68 -80z m718 70 c-9 -16 -40 -51 -67 -77 l-50 -48
50 55 c28 31 56 66 63 78 6 12 14 22 17 22 3 0 -3 -13 -13 -30z m-567 -178
c-5 -4 -66 26 -66 33 0 3 16 -3 35 -12 19 -9 33 -18 31 -21z m414 33 c0 -6
-56 -35 -67 -35 -4 1 8 9 27 20 39 22 40 22 40 15z m-113 -51 c-3 -3 -12 -4
-19 -1 -8 3 -5 6 6 6 11 1 17 -2 13 -5z m-169 -11 c-10 -2 -26 -2 -35 0 -10 3
-2 5 17 5 19 0 27 -2 18 -5z m120 0 c-10 -2 -26 -2 -35 0 -10 3 -2 5 17 5 19
0 27 -2 18 -5z m-223 -117 c38 -16 43 -27 20 -46 -12 -10 -19 -10 -27 -2 -17
17 -69 15 -90 -5 -27 -24 -24 -79 6 -99 39 -25 70 -15 74 24 3 26 7 32 28 32
22 0 24 -4 24 -45 0 -40 -3 -47 -26 -55 -14 -6 -46 -10 -70 -10 -64 0 -104 40
-104 102 0 51 21 85 64 104 40 17 59 17 101 0z m-600 -92 c25 -53 45 -100 45
-105 0 -19 -49 -9 -55 11 -5 17 -15 20 -60 20 -45 0 -55 -3 -60 -20 -4 -13
-15 -20 -31 -20 -13 0 -24 2 -24 4 0 2 12 30 26 62 15 33 35 78 45 102 15 34
23 42 44 42 23 0 31 -11 70 -96z m325 76 c0 -18 -7 -20 -55 -20 -52 0 -55 -1
-55 -24 0 -23 5 -25 47 -28 36 -2 49 -7 51 -20 3 -15 -4 -18 -47 -18 l-51 0 0
-40 c0 -36 -2 -40 -25 -40 l-25 0 0 105 0 105 80 0 c73 0 80 -2 80 -20z m490
-20 l0 -40 50 0 50 0 0 40 c0 36 3 40 25 40 l25 0 0 -105 0 -105 -25 0 c-23 0
-25 4 -25 46 l0 45 -47 -3 -48 -3 -3 -42 c-3 -38 -6 -43 -28 -43 -24 0 -24 0
-24 105 l0 105 25 0 c23 0 25 -4 25 -40z m452 -62 c44 -99 45 -103 25 -106
-14 -3 -27 4 -35 17 -20 30 -106 30 -122 1 -6 -11 -21 -20 -35 -20 -24 0 -23
0 23 105 42 96 48 105 72 105 25 0 31 -9 72 -102z m254 40 l49 -63 3 63 c3 58
4 62 27 62 25 0 25 0 25 -105 0 -102 -1 -105 -22 -105 -16 0 -39 19 -73 62
l-50 62 -3 -62 c-3 -58 -4 -62 -27 -62 -25 0 -25 0 -25 105 0 104 0 105 24
105 16 0 37 -17 72 -62z m-1406 -228 c11 -8 7 -9 -15 -4 -37 8 -45 14 -19 14
10 0 26 -5 34 -10z m198 -113 l37 -4 -42 -1 -43 -2 2 68 2 67 3 -62 4 -62 37
-4z m252 103 c40 -40 11 -110 -45 -110 -32 0 -65 33 -65 65 0 14 9 34 20 45
11 11 31 20 45 20 14 0 34 -9 45 -20z m213 13 c-21 -4 -23 -11 -25 -66 l-2
-62 -3 62 c-4 58 -5 62 -31 66 -15 2 -2 4 28 4 30 0 45 -2 33 -4z m197 -53
c36 0 39 2 43 33 2 17 4 1 4 -38 0 -38 -2 -55 -4 -37 -4 30 -7 32 -43 32 -36
0 -39 -2 -43 -32 -2 -18 -4 -1 -4 37 0 39 2 55 4 38 4 -31 7 -33 43 -33z m248
53 c-33 -4 -38 -8 -38 -29 0 -21 5 -24 38 -26 l37 -1 -37 -4 c-32 -4 -38 -8
-38 -28 0 -21 5 -24 43 -28 l42 -4 -47 -1 -48 -2 0 65 0 65 43 -2 42 -1 -37
-4z m235 -1 c3 -4 -9 -7 -26 -7 -47 0 -48 -30 -2 -45 20 -7 39 -18 42 -26 12
-32 -41 -57 -76 -35 -8 5 0 8 25 7 54 -1 59 27 9 44 -41 13 -53 33 -35 55 13
16 55 21 63 7z m-1420 -28 c-16 -25 -16 -28 0 -58 l17 -31 -20 24 c-24 28 -25
40 -4 69 21 31 28 28 7 -4z m77 -84 c-8 -5 -24 -9 -35 -9 -16 1 -16 2 5 9 35
11 48 11 30 0z"/>
<path d="M171 597 c-15 -44 -12 -50 23 -45 l25 3 -18 40 -18 40 -12 -38z"/>
<path d="M1431 589 c-6 -18 -11 -34 -11 -35 0 -2 14 -4 30 -4 17 0 30 2 30 4
0 14 -24 66 -30 66 -4 0 -13 -14 -19 -31z"/>
<path d="M737 372 c-22 -24 -21 -55 1 -75 37 -34 92 -11 92 38 0 50 -60 73
-93 37z"/>
</g>
</svg>
